<svg width="25" height="25" viewBox="0 0 25 25" fill="none" xmlns="http://www.w3.org/2000/svg">
<rect x="0.0146484" y="0.425537" width="24" height="24" rx="5" fill="#31D555"/>
<path fill-rule="evenodd" clip-rule="evenodd" d="M10.0146 14.4255L18.0146 6.42554L20.0146 8.42554L12.0146 16.4255L10.0146 14.4255ZM8.01465 16.4255L10.0146 14.4255L6.01465 10.4255L4.01465 12.4255L8.01465 16.4255Z" fill="white"/>
<path fill-rule="evenodd" clip-rule="evenodd" d="M10.0146 14.4255L18.0146 6.42554L20.0146 8.42554L12.0146 16.4255L10.0146 14.4255ZM8.01465 16.4255L10.0146 14.4255L6.01465 10.4255L4.01465 12.4255L8.01465 16.4255Z" fill="#00CD2D" fill-opacity="0.1"/>
<path d="M8.01465 16.4255L10.0146 18.4255L12.0146 16.4255L10.0146 14.4255L8.01465 16.4255Z" fill="white"/>
<path d="M8.01465 16.4255L10.0146 18.4255L12.0146 16.4255L10.0146 14.4255L8.01465 16.4255Z" fill="#00CD2D" fill-opacity="0.1"/>
</svg>
