<svg width="60" height="60" viewBox="0 0 60 60" fill="none" xmlns="http://www.w3.org/2000/svg">
<path d="M8.75 50C7.75 50 6.875 49.625 6.125 48.875C5.375 48.125 5 47.25 5 46.25V13.75C5 12.75 5.375 11.875 6.125 11.125C6.875 10.375 7.75 10 8.75 10H51.25C52.25 10 53.125 10.375 53.875 11.125C54.625 11.875 55 12.75 55 13.75V46.25C55 47.25 54.625 48.125 53.875 48.875C53.125 49.625 52.25 50 51.25 50H8.75ZM30 31.125L8.75 17.1875V46.25H51.25V17.1875L30 31.125ZM30 27.375L51 13.75H9.0625L30 27.375ZM8.75 17.1875V13.75V46.25V17.1875Z" fill="#2C2A4A"/>
</svg>
