<svg width="24" height="25" viewBox="0 0 24 25" fill="none" xmlns="http://www.w3.org/2000/svg">
<path d="M15.0301 10.8615L20.6901 7.07153C21.2601 6.69153 21.4101 5.91153 21.0301 5.35153L19.2101 2.64151C18.8301 2.07151 18.0501 1.92151 17.4901 2.30151L11.8301 6.09152L15.0301 10.8615Z" stroke="#292D32" stroke-width="1.5" stroke-linecap="round" stroke-linejoin="round"/>
<path d="M12.1737 6.57161L7.396 9.77148L9.9559 13.5936L14.7336 10.3938L12.1737 6.57161Z" stroke="#292D32" stroke-width="1.5" stroke-linecap="round" stroke-linejoin="round"/>
<path d="M5.83004 15.9917L9.78004 13.3517L7.54004 10.0117L3.59004 12.6517C3.13004 12.9617 3.01004 13.5817 3.32004 14.0417L4.45004 15.7217C4.75004 16.1717 5.37004 16.2917 5.83004 15.9917Z" stroke="#292D32" stroke-width="1.5" stroke-linecap="round" stroke-linejoin="round"/>
<path d="M12.0501 12.291L7.56006 22.091" stroke="#292D32" stroke-width="1.5" stroke-linecap="round" stroke-linejoin="round"/>
<path d="M12 12.291L16.44 22.091" stroke="#292D32" stroke-width="1.5" stroke-linecap="round" stroke-linejoin="round"/>
</svg>
