<svg width="27" height="22" viewBox="0 0 27 22" fill="none" xmlns="http://www.w3.org/2000/svg">
<rect x="11.9854" y="5.91528" width="4" height="14" fill="white"/>
<path d="M26.7398 19.3057L15.7945 1.84382C15.0187 0.60577 12.952 0.60577 12.1756 1.84382L1.23095 19.3057C1.06251 19.5744 0.978058 19.8761 0.985845 20.1813C0.993632 20.4865 1.09339 20.7847 1.27538 21.0469C1.45738 21.3091 1.71538 21.5262 2.02422 21.6772C2.33307 21.8281 2.68218 21.9077 3.03751 21.9081H24.93C25.2856 21.9081 25.6351 21.8289 25.9444 21.6782C26.2537 21.5274 26.5121 21.3103 26.6945 21.0481C26.8769 20.7858 26.9769 20.4874 26.9848 20.182C26.9928 19.8766 26.9083 19.5746 26.7398 19.3057ZM13.9854 19.2047C13.7313 19.2047 13.483 19.14 13.2718 19.0187C13.0605 18.8975 12.8959 18.7252 12.7987 18.5235C12.7015 18.3219 12.676 18.1 12.7256 17.886C12.7752 17.6719 12.8975 17.4753 13.0771 17.321C13.2568 17.1667 13.4856 17.0616 13.7348 17.019C13.9839 16.9765 14.2422 16.9983 14.4769 17.0818C14.7116 17.1653 14.9122 17.3068 15.0533 17.4882C15.1945 17.6697 15.2698 17.883 15.2698 18.1013C15.2698 18.3939 15.1345 18.6746 14.8936 18.8815C14.6527 19.0884 14.326 19.2047 13.9854 19.2047ZM15.3802 8.10691L15.0116 14.8379C15.0116 15.072 14.9034 15.2965 14.7107 15.4621C14.518 15.6276 14.2566 15.7206 13.9841 15.7206C13.7115 15.7206 13.4502 15.6276 13.2575 15.4621C13.0648 15.2965 12.9565 15.072 12.9565 14.8379L12.5879 8.10967C12.5796 7.94889 12.6091 7.78833 12.6746 7.63755C12.7401 7.48677 12.8402 7.34886 12.9691 7.23204C13.0979 7.11522 13.2528 7.02188 13.4246 6.95759C13.5963 6.8933 13.7813 6.85937 13.9687 6.85782H13.9821C14.1707 6.85774 14.3574 6.89048 14.5309 6.95408C14.7043 7.01767 14.861 7.1108 14.9914 7.22784C15.1218 7.34488 15.2233 7.48341 15.2897 7.63507C15.3561 7.78672 15.386 7.94836 15.3777 8.11022L15.3802 8.10691Z" fill="#F52222"/>
</svg>
